# Blender v3.1.2 OBJ File: ''
# www.blender.org
mtllib tankbody.mtl
o body
v -15.093168 12.220406 41.687511
v 23.291927 12.220406 41.687511
v 23.291927 15.589518 41.687511
v -15.093168 15.589518 41.687511
v -15.093168 16.460896 40.845848
v 23.291927 16.460896 40.845848
v 23.291927 19.785320 13.966163
v -15.093168 19.785320 13.966163
v -15.093168 13.740295 -29.813662
v 23.291927 13.740295 -29.813662
v 23.291927 6.741292 -29.813662
v -15.093168 6.741292 -29.813662
v -15.093168 2.866766 -20.125191
v 23.291927 2.866766 -20.125191
v 23.291927 2.704283 13.966265
v -15.093168 2.704283 13.966265
v 23.291927 4.682928 31.062878
v -15.093168 4.682928 31.062878
v -15.093168 19.788471 -18.401333
v 23.291927 19.788471 -18.401333
vt 0.375000 0.124987
vt 0.625000 0.124987
vt 0.625000 0.225000
vt 0.375000 0.225000
vt 0.375000 0.252943
vt 0.625000 0.252943
vt 0.625000 0.391041
vt 0.375000 0.391041
vt 0.375000 0.562500
vt 0.625000 0.562500
vt 0.625000 0.625012
vt 0.375000 0.625012
vt 0.375000 0.786513
vt 0.625000 0.786513
vt 0.625000 0.867745
vt 0.375000 0.867745
vt 0.661513 0.000000
vt 0.757255 0.000000
vt 0.766041 0.250000
vt 0.627943 0.249999
vt 0.338487 0.000000
vt 0.125000 0.124987
vt 0.161513 0.000000
vt 0.242745 0.000000
vt 0.233959 0.250000
vt 0.141939 0.250000
vt 0.125000 0.187500
vt 0.625000 0.483061
vt 0.375000 0.483061
vt 0.625000 0.963487
vt 0.375000 0.963487
vt 0.838487 0.000000
vt 0.875000 0.124987
vt 0.875000 0.187500
vt 0.858061 0.250000
vt 0.372057 0.250000
vn 0.0000 0.0000 1.0000
vn 0.0000 0.9924 0.1227
vn 0.0000 0.9984 0.0561
vn 0.0000 0.0000 -1.0000
vn 0.0000 -1.0000 -0.0048
vn 0.0000 -0.9994 0.0355
vn 1.0000 0.0000 0.0000
vn 0.0000 -0.8156 0.5786
vn -1.0000 -0.0000 0.0000
vn 0.0000 -0.9285 -0.3713
vn 0.0000 1.0000 0.0001
vn 0.0000 -0.9934 0.1150
vn 0.0000 0.8836 -0.4683
vn 0.0000 0.6947 0.7193
usemtl phong1
s 1
f 1/1/1 2/2/1 3/3/1 4/4/1
f 5/5/2 6/6/2 7/7/3 8/8/3
f 9/9/4 10/10/4 11/11/4 12/12/4
f 13/13/5 14/14/5 15/15/6 16/16/6
f 2/2/7 17/17/7 15/18/7 7/19/7 6/20/7 3/3/7
f 1/1/8 18/21/8 17/17/8 2/2/8
f 12/22/9 13/23/9 16/24/9 8/25/9 19/26/9 9/27/9
f 13/13/10 12/12/10 11/11/10 14/14/10
f 8/8/3 7/7/3 20/28/11 19/29/11
f 16/16/6 15/15/6 17/30/12 18/31/12
f 7/19/7 15/18/7 14/32/7 11/33/7 10/34/7 20/35/7
f 8/25/9 16/24/9 18/21/9 1/1/9 4/4/9 5/36/9
f 9/9/13 19/29/13 20/28/13 10/10/13
f 5/5/14 4/4/14 3/3/14 6/6/14
o treadR
v -14.788264 4.535141 -33.437210
v -14.788264 0.091995 -22.310616
v -23.271227 0.091995 -22.310616
v -23.271227 4.535141 -33.437210
v -14.788264 -0.117637 14.636393
v -23.271227 -0.117637 14.636393
v -14.788264 17.333309 14.588268
v -14.788264 17.291922 -20.434830
v -23.271227 17.291922 -20.434830
v -23.271227 17.333309 14.588268
v -14.788264 12.579677 -33.413368
v -23.271227 12.579677 -33.413368
v -14.788264 1.974026 33.432739
v -23.271227 1.974026 33.432739
v -14.788264 10.036627 45.470280
v -23.271227 10.036626 45.470280
v -14.788264 14.241907 45.570660
v -23.271227 14.241907 45.570660
v -14.788264 15.712282 43.967690
v -23.271227 15.712282 43.967690
v -14.788264 5.090364 -32.385284
v -14.788264 1.256423 -21.999901
v -23.271227 1.256423 -21.999901
v -23.271227 5.090364 -32.385284
v -14.788264 1.095641 14.543836
v -23.271227 1.095641 14.543836
v -14.788264 16.115974 14.543724
v -14.788264 16.119091 -20.152042
v -23.271227 16.119091 -20.152042
v -23.271227 16.115974 14.543724
v -14.788264 12.016058 -32.385281
v -23.271227 12.016058 -32.385281
v -14.788264 3.053560 32.870247
v -23.271227 3.053559 32.870247
v -14.788264 10.512086 44.259125
v -23.271227 10.512084 44.259125
v -14.788264 13.845910 44.259129
v -23.271227 13.845910 44.259129
v -14.788264 14.708160 43.356930
v -23.271227 14.708160 43.356930
vt 0.011802 0.282463
vt 0.010567 0.216677
vt 0.024445 0.216481
vt 0.025566 0.282119
vt 0.008223 0.000642
vt 0.022135 0.000488
vt 0.010666 0.605555
vt 0.011312 0.400891
vt 0.025202 0.401003
vt 0.024586 0.605586
vt 0.012027 0.324508
vt 0.025802 0.324380
vt 0.013963 0.999512
vt 0.012588 0.889995
vt 0.026425 0.889825
vt 0.027954 0.999360
vt 0.011204 0.806984
vt 0.024998 0.806433
vt 0.010613 0.785891
vt 0.024179 0.785186
vt 0.010263 0.776559
vt 0.024130 0.776606
vt 0.006175 0.281281
vt 0.003118 0.215992
vt 0.031832 0.215570
vt 0.031062 0.281265
vt 0.000488 0.001335
vt 0.029864 0.000992
vt 0.002902 0.605514
vt 0.003862 0.401502
vt 0.032690 0.401724
vt 0.032345 0.605554
vt 0.006638 0.325513
vt 0.031219 0.325863
vt 0.006224 0.999205
vt 0.005350 0.890807
vt 0.033729 0.890498
vt 0.035749 0.998822
vt 0.004721 0.808737
vt 0.031625 0.808178
vt 0.003359 0.785076
vt 0.031253 0.784562
vt 0.003679 0.774523
vt 0.030656 0.774927
vt 0.045700 0.215583
vt 0.044948 0.281404
vt 0.045069 0.325578
vt 0.046555 0.401603
vt 0.046217 0.605625
vt 0.044562 0.775223
vt 0.044866 0.783887
vt 0.045476 0.807487
vt 0.047600 0.890156
vt 0.049623 0.998527
vt 0.043732 0.000863
vn -0.0000 -0.9178 -0.3970
vn -0.0000 -1.0000 -0.0060
vn 0.0000 1.0000 -0.0012
vn 0.0000 0.9306 -0.3660
vn 0.0000 0.0030 -1.0000
vn 0.0000 -0.9928 0.1197
vn 0.0000 -0.8094 0.5873
vn 0.0000 -0.0220 0.9998
vn 0.0000 -0.0221 0.9998
vn -0.0000 0.7094 0.7049
vn -0.0000 0.9982 0.0597
vn 1.0000 0.0000 0.0000
vn -1.0000 0.0000 0.0000
vn -0.0000 0.9285 0.3713
vn 0.0000 -0.0000 1.0000
vn 0.0000 -0.9399 0.3415
vn 0.0000 -1.0000 -0.0001
vn -0.0000 -0.9986 -0.0529
vn -0.0000 -0.6947 -0.7193
vn 0.0000 0.0000 -1.0000
vn 0.0000 0.8156 -0.5786
vn -0.0000 0.9934 -0.1150
vn 0.0000 1.0000 0.0044
usemtl phong1.001
s 1
f 21/37/15 22/38/15 23/39/15 24/40/15
f 22/38/16 25/41/16 26/42/16 23/39/16
f 27/43/17 28/44/17 29/45/17 30/46/17
f 28/44/18 31/47/18 32/48/18 29/45/18
f 31/47/19 21/37/19 24/40/19 32/48/19
f 25/49/20 33/50/20 34/51/20 26/52/20
f 33/50/21 35/53/21 36/54/21 34/51/21
f 35/53/22 37/55/23 38/56/23 36/54/22
f 37/55/24 39/57/24 40/58/24 38/56/24
f 39/57/25 27/43/25 30/46/25 40/58/25
f 41/59/26 42/60/26 22/38/26 21/37/26
f 43/61/27 44/62/27 24/40/27 23/39/27
f 42/60/26 45/63/26 25/41/26 22/38/26
f 46/64/27 43/61/27 23/39/27 26/42/27
f 47/65/26 48/66/26 28/44/26 27/43/26
f 49/67/27 50/68/27 30/46/27 29/45/27
f 48/66/26 51/69/26 31/47/26 28/44/26
f 52/70/27 49/67/27 29/45/27 32/48/27
f 51/69/26 41/59/26 21/37/26 31/47/26
f 44/62/27 52/70/27 32/48/27 24/40/27
f 45/71/26 53/72/26 33/50/26 25/49/26
f 54/73/27 46/74/27 26/52/27 34/51/27
f 53/72/26 55/75/26 35/53/26 33/50/26
f 56/76/27 54/73/27 34/51/27 36/54/27
f 55/75/26 57/77/26 37/55/26 35/53/26
f 58/78/27 56/76/27 36/54/27 38/56/27
f 57/77/26 59/79/26 39/57/26 37/55/26
f 60/80/27 58/78/27 38/56/27 40/58/27
f 59/79/26 47/65/26 27/43/26 39/57/26
f 50/68/27 60/80/27 40/58/27 30/46/27
f 42/81/28 41/82/28 44/62/28 43/61/28
f 41/82/29 51/83/29 52/70/29 44/62/29
f 51/83/30 48/84/30 49/67/30 52/70/30
f 48/84/31 47/85/31 50/68/31 49/67/31
f 47/85/32 59/86/32 60/80/32 50/68/32
f 59/86/33 57/87/33 58/78/33 60/80/33
f 57/87/34 55/88/34 56/76/34 58/78/34
f 55/88/35 53/89/35 54/73/35 56/76/35
f 53/89/36 45/90/36 46/74/36 54/73/36
f 45/91/37 42/81/37 43/61/37 46/64/37
o sideR
v -21.857454 5.090365 -32.385281
v -21.857454 1.256423 -21.999895
v -21.857454 1.095641 14.543833
v -21.857454 16.115974 14.543724
v -21.857454 16.119091 -20.152039
v -21.857454 12.016059 -32.385277
v -21.857454 3.053560 32.870243
v -21.857454 10.512086 44.259125
v -21.857454 13.845910 44.259129
v -21.857454 14.708160 43.356922
v -14.771445 5.090365 -32.385281
v -14.771445 12.016059 -32.385277
v -14.771445 16.119091 -20.152039
v -14.771445 16.115974 14.543724
v -14.771445 1.095642 14.543833
v -14.771445 1.256423 -21.999895
v -14.771445 14.708160 43.356922
v -14.771445 13.845910 44.259129
v -14.771445 10.512087 44.259125
v -14.771445 3.053561 32.870243
vt 0.125000 0.124987
vt 0.161513 0.000000
vt 0.242745 0.000000
vt 0.233959 0.250000
vt 0.141939 0.250000
vt 0.125000 0.187500
vt 0.338487 0.000000
vt 0.375000 0.124987
vt 0.375000 0.225000
vt 0.372057 0.250000
vt 0.125000 0.124987
vt 0.125000 0.187500
vt 0.141939 0.250000
vt 0.233959 0.250000
vt 0.242745 0.000000
vt 0.161513 0.000000
vt 0.372057 0.250000
vt 0.375000 0.225000
vt 0.375000 0.124987
vt 0.338487 0.000000
vn -1.0000 0.0000 0.0000
vn 1.0000 0.0000 0.0000
vn -0.0000 -0.9285 -0.3713
vn 0.0000 -0.9958 -0.0918
vn 0.0000 -0.9994 0.0355
vn 0.0000 0.9997 0.0241
vn -0.0000 0.9956 -0.0942
vn -0.0000 0.9399 -0.3415
vn 0.0000 0.0000 -1.0000
vn 0.0000 -0.9458 0.3247
vn 0.0000 -0.8156 0.5786
vn 0.0000 -0.0000 1.0000
vn -0.0000 0.6947 0.7193
vn -0.0000 0.9986 0.0528
usemtl phong1.002
s 1
f 61/92/38 62/93/38 63/94/38 64/95/38 65/96/38 66/97/38
f 64/95/38 63/94/38 67/98/38 68/99/38 69/100/38 70/101/38
f 71/102/39 72/103/39 73/104/39 74/105/39 75/106/39 76/107/39
f 74/105/39 77/108/39 78/109/39 79/110/39 80/111/39 75/106/39
f 71/102/40 76/107/41 62/93/41 61/92/40
f 76/107/41 75/106/42 63/94/42 62/93/41
f 74/105/43 73/104/44 65/96/44 64/95/43
f 73/104/44 72/103/45 66/97/45 65/96/44
f 72/103/46 71/102/46 61/92/46 66/97/46
f 75/106/42 80/111/47 67/98/47 63/94/42
f 80/111/47 79/110/48 68/99/48 67/98/47
f 79/110/49 78/109/49 69/100/49 68/99/49
f 78/109/50 77/108/50 70/101/50 69/100/50
f 77/108/51 74/105/43 64/95/43 70/101/51
o sideL
v 30.541336 5.090365 -32.387707
v 30.541336 1.256423 -22.001663
v 30.541336 1.095641 14.544378
v 30.541336 16.115974 14.544269
v 30.541336 16.119091 -20.153688
v 30.541336 12.016059 -32.387703
v 30.541336 3.053560 32.871948
v 30.541336 10.512086 44.261551
v 30.541336 13.845910 44.261555
v 30.541336 14.708160 43.359287
v 23.455326 5.090365 -32.387707
v 23.455326 12.016059 -32.387703
v 23.455326 16.119091 -20.153688
v 23.455326 16.115974 14.544269
v 23.455326 1.095642 14.544378
v 23.455326 1.256423 -22.001663
v 23.455326 14.708160 43.359287
v 23.455326 13.845910 44.261555
v 23.455326 10.512087 44.261551
v 23.455326 3.053561 32.871948
vt 0.125000 0.124987
vt 0.161513 0.000000
vt 0.242745 0.000000
vt 0.233959 0.250000
vt 0.141939 0.250000
vt 0.125000 0.187500
vt 0.338487 0.000000
vt 0.375000 0.124987
vt 0.375000 0.225000
vt 0.372057 0.250000
vt 0.125000 0.124987
vt 0.125000 0.187500
vt 0.141939 0.250000
vt 0.233959 0.250000
vt 0.242745 0.000000
vt 0.161513 0.000000
vt 0.372057 0.250000
vt 0.375000 0.225000
vt 0.375000 0.124987
vt 0.338487 0.000000
vn -1.0000 -0.0000 0.0000
vn 1.0000 0.0000 0.0000
vn 0.0000 0.9285 0.3713
vn 0.0001 0.9958 0.0918
vn 0.0000 0.9958 0.0918
vn 0.0000 0.9994 -0.0355
vn 0.0000 -0.9997 -0.0245
vn 0.0000 -0.9955 0.0942
vn -0.0000 -0.9399 0.3415
vn 0.0000 -0.0000 1.0000
vn -0.0000 0.9458 -0.3247
vn 0.0000 0.8156 -0.5786
vn 0.0000 0.0000 -1.0000
vn 0.0000 -0.6947 -0.7193
vn 0.0000 -0.9986 -0.0528
usemtl phong1.003
s 1
f 81/112/52 82/113/52 83/114/52 84/115/52 85/116/52 86/117/52
f 84/115/52 83/114/52 87/118/52 88/119/52 89/120/52 90/121/52
f 91/122/53 92/123/53 93/124/53 94/125/53 95/126/53 96/127/53
f 94/125/53 97/128/53 98/129/53 99/130/53 100/131/53 95/126/53
f 91/122/54 96/127/55 82/113/56 81/112/54
f 96/127/55 95/126/57 83/114/57 82/113/56
f 94/125/58 93/124/59 85/116/59 84/115/58
f 93/124/59 92/123/60 86/117/60 85/116/59
f 92/123/61 91/122/61 81/112/61 86/117/61
f 95/126/57 100/131/62 87/118/62 83/114/57
f 100/131/62 99/130/63 88/119/63 87/118/62
f 99/130/64 98/129/64 89/120/64 88/119/64
f 98/129/65 97/128/65 90/121/65 89/120/65
f 97/128/66 94/125/58 84/115/58 90/121/66
o treadL
v 23.438507 4.535141 -33.439701
v 23.438507 0.091995 -22.312403
v 31.921471 0.091995 -22.312403
v 31.921471 4.535141 -33.439701
v 23.438507 -0.117637 14.636943
v 31.921471 -0.117637 14.636943
v 23.438507 17.333309 14.588816
v 23.438507 17.291922 -20.436499
v 31.921471 17.291922 -20.436499
v 31.921471 17.333309 14.588816
v 23.438507 12.579677 -33.415859
v 31.921471 12.579677 -33.415859
v 23.438507 1.974026 33.434483
v 31.921471 1.974026 33.434483
v 23.438507 10.036627 45.472782
v 31.921471 10.036626 45.472782
v 23.438507 14.241907 45.573170
v 31.921471 14.241907 45.573170
v 23.438507 15.712282 43.970097
v 31.921471 15.712282 43.970097
v 23.438507 5.090364 -32.387711
v 23.438507 1.256423 -22.001669
v 31.921471 1.256423 -22.001669
v 31.921471 5.090364 -32.387711
v 23.438507 1.095641 14.544380
v 31.921471 1.095641 14.544380
v 23.438507 16.115974 14.544269
v 23.438507 16.119091 -20.153694
v 31.921471 16.119091 -20.153694
v 31.921471 16.115974 14.544269
v 23.438507 12.016058 -32.387707
v 31.921471 12.016058 -32.387707
v 23.438507 3.053560 32.871952
v 31.921471 3.053559 32.871952
v 23.438507 10.512086 44.261551
v 31.921471 10.512084 44.261551
v 23.438507 13.845910 44.261555
v 31.921471 13.845910 44.261555
v 23.438507 14.708160 43.359299
v 31.921471 14.708160 43.359299
vt 0.073427 0.282463
vt 0.072192 0.216677
vt 0.086069 0.216481
vt 0.087190 0.282119
vt 0.069848 0.000642
vt 0.083760 0.000488
vt 0.072291 0.605555
vt 0.072937 0.400891
vt 0.086827 0.401003
vt 0.086210 0.605586
vt 0.073651 0.324508
vt 0.087426 0.324380
vt 0.075587 0.999512
vt 0.074213 0.889995
vt 0.088049 0.889825
vt 0.089579 0.999360
vt 0.072828 0.806984
vt 0.086623 0.806433
vt 0.072237 0.785891
vt 0.085803 0.785186
vt 0.071888 0.776559
vt 0.085755 0.776606
vt 0.067799 0.281281
vt 0.064743 0.215992
vt 0.093456 0.215570
vt 0.092687 0.281265
vt 0.062113 0.001335
vt 0.091488 0.000992
vt 0.064527 0.605514
vt 0.065487 0.401502
vt 0.094314 0.401724
vt 0.093970 0.605554
vt 0.068263 0.325513
vt 0.092844 0.325863
vt 0.067849 0.999205
vt 0.066975 0.890807
vt 0.095353 0.890498
vt 0.097373 0.998822
vt 0.066346 0.808737
vt 0.093250 0.808178
vt 0.064984 0.785076
vt 0.092878 0.784562
vt 0.065303 0.774523
vt 0.092281 0.774927
vt 0.107324 0.215583
vt 0.106572 0.281404
vt 0.106693 0.325578
vt 0.108180 0.401603
vt 0.107841 0.605625
vt 0.106186 0.775223
vt 0.106491 0.783887
vt 0.107100 0.807487
vt 0.109225 0.890156
vt 0.111247 0.998527
vt 0.105357 0.000863
vn 0.0000 0.9178 0.3970
vn -0.0000 0.9945 0.1043
vn 0.0000 0.9993 -0.0365
vn -0.0000 -0.9996 -0.0265
vn 0.0000 -0.9943 0.1067
vn -0.0000 -0.9306 0.3660
vn 0.0000 -0.0030 1.0000
vn -0.0000 0.9419 -0.3360
vn -0.0000 0.8094 -0.5873
vn 0.0000 0.0221 -0.9998
vn 0.0000 -0.7093 -0.7049
vn 0.0000 -0.9982 -0.0597
vn 1.0000 0.0000 0.0000
vn -1.0000 0.0000 0.0000
vn 0.0000 -0.9285 -0.3713
vn 0.0000 0.0000 -1.0000
vn 0.0000 0.9399 -0.3415
vn 0.0000 0.9955 -0.0942
vn 0.0000 0.9997 0.0245
vn 0.0000 0.9986 0.0529
vn 0.0000 0.6947 0.7193
vn 0.0000 -0.0000 1.0000
vn 0.0000 -0.8156 0.5786
vn 0.0000 -0.9934 0.1149
vn 0.0000 -1.0000 -0.0044
usemtl phong1.004
s 1
f 101/132/67 102/133/68 103/134/68 104/135/67
f 102/133/68 105/136/69 106/137/69 103/134/68
f 107/138/70 108/139/71 109/140/71 110/141/70
f 108/139/71 111/142/72 112/143/72 109/140/71
f 111/142/73 101/132/73 104/135/73 112/143/73
f 105/144/69 113/145/74 114/146/74 106/147/69
f 113/145/74 115/148/75 116/149/75 114/146/74
f 115/148/76 117/150/76 118/151/76 116/149/76
f 117/150/77 119/152/77 120/153/77 118/151/77
f 119/152/78 107/138/70 110/141/70 120/153/78
f 121/154/79 122/155/79 102/133/79 101/132/79
f 123/156/80 124/157/80 104/135/80 103/134/80
f 122/155/79 125/158/79 105/136/79 102/133/79
f 126/159/80 123/156/80 103/134/80 106/137/80
f 127/160/79 128/161/79 108/139/79 107/138/79
f 129/162/80 130/163/80 110/141/80 109/140/80
f 128/161/79 131/164/79 111/142/79 108/139/79
f 132/165/80 129/162/80 109/140/80 112/143/80
f 131/164/79 121/154/79 101/132/79 111/142/79
f 124/157/80 132/165/80 112/143/80 104/135/80
f 125/166/79 133/167/79 113/145/79 105/144/79
f 134/168/80 126/169/80 106/147/80 114/146/80
f 133/167/79 135/170/79 115/148/79 113/145/79
f 136/171/80 134/168/80 114/146/80 116/149/80
f 135/170/79 137/172/79 117/150/79 115/148/79
f 138/173/80 136/171/80 116/149/80 118/151/80
f 137/172/79 139/174/79 119/152/79 117/150/79
f 140/175/80 138/173/80 118/151/80 120/153/80
f 139/174/79 127/160/79 107/138/79 119/152/79
f 130/163/80 140/175/80 120/153/80 110/141/80
f 122/176/81 121/177/81 124/157/81 123/156/81
f 121/177/82 131/178/82 132/165/82 124/157/82
f 131/178/83 128/179/84 129/162/84 132/165/83
f 128/179/84 127/180/85 130/163/85 129/162/84
f 127/180/85 139/181/86 140/175/86 130/163/85
f 139/181/87 137/182/87 138/173/87 140/175/87
f 137/182/88 135/183/88 136/171/88 138/173/88
f 135/183/89 133/184/89 134/168/89 136/171/89
f 133/184/90 125/185/90 126/169/90 134/168/90
f 125/186/91 122/176/91 123/156/91 126/159/91
