# Aspose.3D Wavefront OBJ Exporter
# Copyright 2004-2024 Aspose Pty Ltd.
# File created: 02/22/2024 20:27:45

mtllib tankturret.mtl
g pCube2

#
# object pCube2
#

v -17.010286 22.15358 9.5852995
v -6.7926745 22.15358 22.567307
v -10.713897 29.42372 5.4028473
v -3.6441653 29.42372 14.385311
v 23.864248 22.15358 9.5852995
v 13.646636 22.15358 22.567307
v 17.567858 29.42372 5.4028473
v 10.498127 29.42372 14.385311
v -10.713897 29.42372 -18.275818
v -3.6441653 29.42372 -22.137957
v -17.010286 22.15358 -20.074123
v -6.7926745 22.15358 -25.655924
v 10.498127 29.42372 -22.137957
v 17.567858 29.42372 -18.275818
v 23.864248 22.15358 -20.074123
v 13.646636 22.15358 -25.655924
v -4.228938 19.408495 -22.79135
v -11.883326 19.408495 -18.609818
v 11.082899 19.408495 -22.79135
v 18.737288 19.408495 -18.609818
v 18.737288 19.408495 6.179655
v 11.082899 19.408495 15.904954
v -4.228938 19.408495 15.904954
v -11.883326 19.408495 6.179655
# 24 vertices

vn 0 0.5232183 0.8521986
vn 0 0.5232183 0.85219866
vn 0 0.52321833 0.8521987
vn 0 0.5232183 0.8521986
vn 0 0.2552386 -0.9668781
vn 0 0.2552386 -0.9668781
vn 0 0.2552386 -0.9668781
vn 0 0.2552386 -0.9668781
vn 0.8573801 0.51468366 0
vn 0.8573802 0.51468366 0
vn 0.85738015 0.51468366 0
vn 0.85738015 0.51468366 0
vn -0.8573803 0.5146835 0
vn -0.85738033 0.51468354 0
vn -0.8573802 0.5146835 0
vn -0.8573802 0.5146835 0
vn 0 1 0
vn 0 1 0
vn 0 1 0
vn 0 1 0
vn 0 1 0
vn 0 1 0
vn 0 0.99999994 0
vn 0 1 0
vn 0 -1 -2.1924269E-08
vn 0 -1 -2.1924269E-08
vn 0 -1 -2.1924269E-08
vn 0 -1 -2.1924269E-08
vn 0 -1 -2.192427E-08
vn 0 -1 -2.192427E-08
vn 0 -1 -2.192427E-08
vn 0 -1 -2.192427E-08
vn -0.59384525 0.5428588 0.59384525
vn -0.5938452 0.5428587 0.5938452
vn -0.5938453 0.54285884 0.5938453
vn -0.59384525 0.5428588 0.59384525
vn 0.59384525 0.5428588 0.59384525
vn 0.59384525 0.5428588 0.59384525
vn 0.59384525 0.5428587 0.59384525
vn 0.59384525 0.5428587 0.59384525
vn -0.3715218 0.33962375 -0.86407596
vn -0.37152177 0.33962378 -0.864076
vn -0.37152177 0.33962378 -0.86407596
vn -0.37152177 0.33962375 -0.86407596
vn 0.37152177 0.33962372 -0.864076
vn 0.37152174 0.3396237 -0.8640759
vn 0.37152177 0.3396237 -0.864076
vn 0.3715218 0.33962372 -0.86407596
vn -0.31165585 -0.6143905 -0.72484124
vn -0.31165582 -0.6143905 -0.72484124
vn -0.31165585 -0.6143905 -0.7248413
vn -0.31165585 -0.6143905 -0.7248413
vn 0 -0.4947345 -0.86904424
vn 0 -0.4947345 -0.86904424
vn 0 -0.49473444 -0.8690442
vn 0 -0.49473444 -0.8690442
vn 0.31165585 -0.6143905 -0.7248413
vn 0.31165588 -0.6143905 -0.7248413
vn 0.31165582 -0.6143905 -0.7248413
vn 0.31165585 -0.6143905 -0.72484136
vn 0.61131656 -0.7913861 0
vn 0.61131656 -0.79138607 0
vn 0.61131656 -0.7913862 0
vn 0.61131656 -0.7913861 0
vn 0.41217175 -0.8125447 0.4121719
vn 0.4121718 -0.8125447 0.41217187
vn 0.41217172 -0.8125446 0.41217184
vn 0.41217172 -0.8125446 0.41217187
vn 0 -0.79797673 0.6026882
vn 0 -0.79797673 0.6026882
vn 0 -0.7979768 0.60268825
vn 0 -0.7979768 0.60268825
vn -0.41217178 -0.81254464 0.41217178
vn -0.41217178 -0.81254464 0.41217178
vn -0.41217175 -0.81254464 0.41217178
vn -0.41217172 -0.81254464 0.41217175
vn -0.61131656 -0.7913861 0
vn -0.6113166 -0.7913861 0
vn -0.6113166 -0.7913862 0
vn -0.6113166 -0.7913862 0
# 80 vertex normals

vt 0.375 0.31110284 0
vt 0.625 0.3111028 0
vt 0.37500003 0.43889716 0
vt 0.625 0.8111028 0
vt 0.625 0.93889713 0
vt 0.56250626 1 0
vt 0.43749374 1 0
vt 0.375 0.93889713 0
vt 0.43749374 0.24999996 0
vt 0.56250626 0 0
vt 0.18610282 0.24999996 0
vt 0.18610284 -1.1175871E-08 0
vt 0.31389716 -1.4901161E-08 0
vt 0.43749374 0.75 0
vt 0.56250626 0.50000006 0
vt 0.68610287 0.24999996 0
vt 0.81389713 -1.4901161E-08 0
vt 0.81389713 0.24999997 0
vt 0.43749374 -7.450581E-09 0
vt 0.31389716 0.24999996 0
vt 0.68610287 -1.1175871E-08 0
vt 0.5625062 0.24999996 0
vt 0.43749374 0.5 0
vt 0.375 0.81110287 0
vt 0.625 0.43889716 0
vt 0.56250626 0.75 0
vt 0.375 0.81110287 0
vt 0.43749374 0.75 0
vt 0.56250626 0.75 0
vt 0.625 0.8111028 0
vt 0.625 0.93889713 0
vt 0.56250626 1 0
vt 0.43749374 1 0
vt 0.375 0.93889713 0
# 34 texture coords

usemtl phong1
s 1
f 4/9/1 2/19/2 6/10/3 8/22/4
f 12/14/5 10/23/6 13/15/7 16/26/8
f 7/16/9 5/21/10 15/17/11 14/18/12
f 9/11/13 11/12/14 1/13/15 3/20/16
f 3/1/17 4/9/18 8/22/19 7/2/20 14/25/21 13/15/22 10/23/23 9/3/24
f 18/27/25 17/28/26 19/29/27 20/30/28 21/31/29 22/32/30 23/33/31 24/34/32
f 1/13/33 2/19/34 4/9/35 3/20/36
f 6/10/37 5/21/38 7/16/39 8/22/40
f 9/3/41 10/23/42 12/14/43 11/24/44
f 13/15/45 14/25/46 15/4/47 16/26/48
f 11/24/49 12/14/50 17/28/51 18/27/52
f 12/14/53 16/26/54 19/29/55 17/28/56
f 16/26/57 15/4/58 20/30/59 19/29/60
f 15/4/61 5/5/62 21/31/63 20/30/64
f 5/5/65 6/6/66 22/32/67 21/31/68
f 6/6/69 2/7/70 23/33/71 22/32/72
f 2/7/73 1/8/74 24/34/75 23/33/76
f 1/8/77 11/24/78 18/27/79 24/34/80
#18 polygons

