# Aspose.3D Wavefront OBJ Exporter
# Copyright 2004-2024 Aspose Pty Ltd.
# File created: 02/22/2024 20:26:19

mtllib material.mtl
g pCylinder1

#
# object pCylinder1
#

v 4.791452 26.305065 12.070097
v 3.755744 26.734062 12.067913
v 2.7200363 26.305065 12.070097
v 2.291032 25.26937 12.075381
v 2.7200363 24.233675 12.080664
v 3.755744 23.804674 12.082848
v 4.791452 24.233675 12.080664
v 5.2204566 25.26937 12.075381
v 5.197261 26.912315 51.570335
v 3.755744 27.509403 51.567295
v 2.314227 26.912315 51.570335
v 1.7171313 25.470818 51.57769
v 2.314227 24.02932 51.58504
v 3.755744 23.432232 51.58808
v 5.197261 24.02932 51.58504
v 5.7943563 25.470818 51.57769
v 5.197261 26.871 43.46845
v 5.7943563 25.4295 43.4758
v 5.197261 23.988 43.48315
v 3.755744 23.390915 43.486206
v 2.314227 23.988 43.48315
v 1.7171313 25.4295 43.4758
v 2.314227 26.871 43.46845
v 3.755744 27.468088 43.46541
v 4.791452 26.460638 42.577526
v 3.755744 26.88964 42.575333
v 2.7200358 26.460638 42.577526
v 2.291032 25.424946 42.58281
v 2.7200358 24.389252 42.588085
v 3.755744 23.960253 42.59028
v 4.791452 24.389252 42.588085
v 5.2204566 25.424946 42.58281
v 4.810321 26.60606 51.5719
v 3.755744 27.076292 51.569492
v 2.7011673 26.60606 51.5719
v 2.2643473 25.470818 51.57769
v 2.7011673 24.335577 51.583473
v 3.755744 23.865341 51.585876
v 4.810321 24.335577 51.583473
v 5.2471404 25.470818 51.57769
v 4.810321 26.58565 43.99974
v 3.755744 27.055882 43.997334
v 2.7011673 26.58565 43.99974
v 2.2643473 25.450409 44.00553
v 2.7011673 24.315168 44.011314
v 3.755744 23.844933 44.013718
v 4.810321 24.315168 44.011314
v 5.2471404 25.450409 44.00553
# 48 vertices

vn 0.23086487 0.55328107 -0.8003633
vn 0.23086487 0.553281 -0.8003633
vn 0.2308649 0.5532811 -0.80036336
vn 0.23086487 0.55328107 -0.80036336
vn -0.23086473 0.5532817 -0.80036294
vn -0.23086473 0.5532818 -0.800363
vn -0.2308647 0.5532817 -0.80036294
vn -0.23086473 0.5532817 -0.80036294
vn -0.5573545 0.2267935 -0.7986994
vn -0.5573545 0.2267935 -0.7986994
vn -0.5573545 0.22679351 -0.7986994
vn -0.5573545 0.2267935 -0.7986994
vn -0.55735594 -0.23492722 -0.7963439
vn -0.55735594 -0.2349272 -0.7963438
vn -0.55735594 -0.2349272 -0.79634386
vn -0.55735594 -0.23492719 -0.79634386
vn -0.23086268 -0.56141853 -0.7946771
vn -0.23086266 -0.56141853 -0.7946771
vn -0.23086266 -0.5614186 -0.7946771
vn -0.23086266 -0.5614186 -0.7946771
vn 0.23086262 -0.56141883 -0.7946769
vn 0.23086262 -0.5614189 -0.7946769
vn 0.23086262 -0.56141883 -0.79467684
vn 0.23086263 -0.56141883 -0.7946769
vn 0.5573562 -0.2349277 -0.7963436
vn 0.5573561 -0.2349277 -0.79634356
vn 0.5573561 -0.23492768 -0.7963436
vn 0.5573561 -0.23492765 -0.7963435
vn 0.5573546 0.22679399 -0.7986991
vn 0.5573547 0.22679396 -0.7986991
vn 0.5573546 0.22679399 -0.7986991
vn 0.5573546 0.22679397 -0.7986991
vn 0 -0.0050995904 -0.999987
vn 0 -0.0050995904 -0.999987
vn 0 -0.0050995904 -0.999987
vn 0 -0.0050995904 -0.999987
vn 0 -0.0050995904 -0.999987
vn 0 -0.0050995904 -0.999987
vn 0 -0.0050995904 -0.999987
vn 0 -0.00509959 -0.99998695
vn 0 0.005099829 0.999987
vn 0 0.005099829 0.999987
vn 0 0.005099829 0.99998695
vn 0 0.005099829 0.999987
vn 0 0.005099829 0.99998695
vn 0 0.005099829 0.999987
vn 0 0.005099829 0.999987
vn 0 0.005099829 0.999987
vn 0.9238796 0.38267833 -0.0019516004
vn 0.9238796 0.38267833 -0.0019516004
vn 0.9238796 0.38267827 -0.0019516001
vn 0.9238796 0.38267833 -0.0019516004
vn 0.9238796 -0.38267824 0.0019516925
vn 0.9238796 -0.38267833 0.001951693
vn 0.9238796 -0.3826783 0.0019516929
vn 0.9238795 -0.38267827 0.0019516927
vn 0.38268313 -0.92386764 0.004711558
vn 0.38268313 -0.9238676 0.0047115576
vn 0.38268313 -0.9238676 0.0047115576
vn 0.38268316 -0.9238676 0.0047115576
vn -0.382683 -0.9238677 0.0047115595
vn -0.382683 -0.92386764 0.0047115595
vn -0.382683 -0.92386764 0.0047115595
vn -0.38268298 -0.9238677 0.0047115595
vn -0.9238796 -0.38267833 0.0019516953
vn -0.9238796 -0.38267824 0.0019516948
vn -0.9238795 -0.38267827 0.001951695
vn -0.9238796 -0.3826783 0.0019516952
vn -0.9238796 0.3826783 -0.0019515912
vn -0.9238796 0.38267827 -0.0019515911
vn -0.9238796 0.3826783 -0.0019515912
vn -0.9238796 0.38267827 -0.0019515911
vn -0.38268334 0.9238676 -0.0047114077
vn -0.3826833 0.9238676 -0.0047114077
vn -0.38268334 0.9238676 -0.0047114077
vn -0.3826833 0.9238676 -0.0047114077
vn 0.38268337 0.9238676 -0.0047114077
vn 0.38268337 0.9238676 -0.0047114077
vn 0.38268337 0.9238676 -0.0047114077
vn 0.38268337 0.9238676 -0.0047114077
vn 0.3826836 0.9238674 -0.004711249
vn 0.38268363 0.92386746 -0.004711249
vn 0.38268363 0.92386746 -0.004711249
vn 0.3826836 0.9238674 -0.004711249
vn -0.38268355 0.92386746 -0.004711252
vn -0.38268358 0.92386746 -0.004711252
vn -0.3826836 0.92386746 -0.004711252
vn -0.38268358 0.9238675 -0.004711252
vn -0.92387974 0.382678 -0.001951468
vn -0.9238798 0.382678 -0.001951468
vn -0.92387974 0.38267797 -0.0019514677
vn -0.92387974 0.382678 -0.001951468
vn -0.92387956 -0.3826784 0.0019515167
vn -0.9238796 -0.38267845 0.001951517
vn -0.92387956 -0.38267842 0.0019515168
vn -0.9238796 -0.38267842 0.0019515168
vn -0.38268396 -0.92386734 0.004711443
vn -0.38268393 -0.9238673 0.0047114426
vn -0.38268396 -0.92386734 0.004711443
vn -0.38268393 -0.92386734 0.004711443
vn 0.382684 -0.9238673 0.0047114454
vn 0.38268396 -0.92386734 0.004711446
vn 0.382684 -0.9238673 0.0047114454
vn 0.382684 -0.92386734 0.004711446
vn 0.9238792 -0.38267922 0.0019515327
vn 0.9238792 -0.38267922 0.0019515327
vn 0.9238793 -0.38267925 0.0019515328
vn 0.92387927 -0.3826792 0.0019515324
vn 0.9238794 0.38267884 -0.0019514663
vn 0.92387944 0.38267887 -0.0019514664
vn 0.92387944 0.38267887 -0.0019514664
vn 0.92387944 0.38267887 -0.0019514664
vn -1.873063E-06 0.0050983177 0.999987
vn -1.8730627E-06 0.0050983177 0.999987
vn -1.8730628E-06 0.0050983177 0.999987
vn -1.8730628E-06 0.0050983177 0.999987
vn 1.8730624E-06 0.005097045 0.999987
vn 1.8730626E-06 0.005097045 0.999987
vn 1.8730625E-06 0.005097045 0.999987
vn 1.8730624E-06 0.005097045 0.999987
vn -1.9518625E-06 0.005101701 0.999987
vn -1.9518625E-06 0.005101701 0.999987
vn -1.9518625E-06 0.005101701 0.999987
vn -1.9518623E-06 0.005101701 0.999987
vn 2.4784204E-06 0.005100118 0.999987
vn 2.4784201E-06 0.005100118 0.999987
vn 2.4784206E-06 0.005100118 0.999987
vn 2.4784204E-06 0.005100118 0.999987
vn 0 0.005098954 0.999987
vn 0 0.005098954 0.99998695
vn 0 0.005098954 0.999987
vn 0 0.005098954 0.999987
vn 0 0.0050983177 0.999987
vn 0 0.0050983173 0.99998695
vn 0 0.0050983177 0.999987
vn 0 0.0050983177 0.999987
vn -2.4784213E-06 0.0050995904 0.999987
vn -2.4784213E-06 0.0050995904 0.999987
vn -2.4784213E-06 0.0050995904 0.999987
vn -2.478421E-06 0.0050995904 0.999987
vn 1.9518627E-06 0.005101173 0.999987
vn 1.9518627E-06 0.005101173 0.99998695
vn 1.951863E-06 0.005101173 0.999987
vn 1.9518627E-06 0.005101173 0.999987
vn -0.4072452 -0.9133189 -0.00023172029
vn -0.40724516 -0.9133188 -0.00023172013
vn -0.4072452 -0.9133189 -0.00023172029
vn -0.40724516 -0.9133188 -0.00023172013
vn 0.40724516 -0.9133188 -0.00023171733
vn 0.4072452 -0.9133189 -0.00023171703
vn 0.40724516 -0.9133188 -0.00023171733
vn 0.4072452 -0.9133189 -0.00023171703
vn 0.93329346 -0.3591146 -9.110785E-05
vn 0.9332934 -0.3591146 -9.110762E-05
vn 0.93329346 -0.3591146 -9.110785E-05
vn 0.9332934 -0.3591146 -9.110762E-05
vn 0.93329346 0.35911462 9.11141E-05
vn 0.93329346 0.35911468 9.111415E-05
vn 0.93329346 0.35911462 9.11141E-05
vn 0.93329346 0.35911468 9.111415E-05
vn 0.40724757 0.91331774 0.00023171955
vn 0.40724754 0.91331774 0.00023171908
vn 0.40724757 0.91331774 0.00023171955
vn 0.40724754 0.91331774 0.00023171908
vn -0.40724754 0.91331774 0.00023172188
vn -0.40724757 0.91331774 0.00023172234
vn -0.40724754 0.91331774 0.00023172188
vn -0.40724757 0.91331774 0.00023172234
vn -0.93329346 0.35911447 9.110892E-05
vn -0.9332936 0.35911447 9.110881E-05
vn -0.93329346 0.35911447 9.110892E-05
vn -0.9332936 0.35911447 9.110881E-05
vn -0.9332935 -0.35911432 -9.111469E-05
vn -0.93329364 -0.35911438 -9.1114736E-05
vn -0.9332935 -0.35911432 -9.111469E-05
vn -0.93329364 -0.35911438 -9.1114736E-05
# 176 vertex normals

vt 0.61048543 0.04576458 0
vt 0.5 1.4901161E-08 0
vt 0.38951457 0.04576458 0
vt 0.34375 0.15625 0
vt 0.38951457 0.26673543 0
vt 0.5 0.3125 0
vt 0.61048543 0.26673543 0
vt 0.65625 0.15625 0
vt 0.375 0.3125 0
vt 0.40625 0.3125 0
vt 0.4375 0.3125 0
vt 0.46875 0.3125 0
vt 0.5 0.3125 0
vt 0.53125 0.3125 0
vt 0.5625 0.3125 0
vt 0.59375 0.3125 0
vt 0.625 0.3125 0
vt 0.375 0.68843985 0
vt 0.40625 0.68843985 0
vt 0.4375 0.68843985 0
vt 0.46875 0.68843985 0
vt 0.5 0.68843985 0
vt 0.53125 0.68843985 0
vt 0.5625 0.68843985 0
vt 0.59375 0.68843985 0
vt 0.625 0.68843985 0
vt 0.61048543 0.73326457 0
vt 0.5 0.6875 0
vt 0.38951457 0.73326457 0
vt 0.34375 0.84375 0
vt 0.38951457 0.95423543 0
vt 0.5 1 0
vt 0.61048543 0.95423543 0
vt 0.65625 0.84375 0
vt 0.625 0.6113349 0
vt 0.375 0.6113349 0
vt 0.59375 0.6113349 0
vt 0.5625 0.6113349 0
vt 0.53125 0.6113349 0
vt 0.5 0.6113349 0
vt 0.46875 0.6113349 0
vt 0.4375 0.6113349 0
vt 0.40625 0.6113349 0
vt 0.625 0.6028364 0
vt 0.375 0.6028364 0
vt 0.40625 0.6028364 0
vt 0.4375 0.6028364 0
vt 0.46875 0.6028364 0
vt 0.5 0.6028364 0
vt 0.53125 0.6028364 0
vt 0.5625 0.6028364 0
vt 0.59375 0.6028364 0
vt 0.61048543 0.95423543 0
vt 0.5 1 0
vt 0.38951457 0.95423543 0
vt 0.34375 0.84375 0
vt 0.38951457 0.73326457 0
vt 0.5 0.6875 0
vt 0.61048543 0.73326457 0
vt 0.65625 0.84375 0
vt 0.61048543 0.95423543 0
vt 0.5 1 0
vt 0.38951457 0.95423543 0
vt 0.34375 0.84375 0
vt 0.38951457 0.73326457 0
vt 0.5 0.6875 0
vt 0.61048543 0.73326457 0
vt 0.65625 0.84375 0
# 68 texture coords

usemtl phong1
s 1
f 25/45/1 26/46/2 24/43/3 17/36/4
f 26/46/5 27/47/6 23/42/7 24/43/8
f 27/47/9 28/48/10 22/41/11 23/42/12
f 28/48/13 29/49/14 21/40/15 22/41/16
f 29/49/17 30/50/18 20/39/19 21/40/20
f 30/50/21 31/51/22 19/38/23 20/39/24
f 31/51/25 32/52/26 18/37/27 19/38/28
f 32/52/29 25/44/30 17/35/31 18/37/32
f 1/1/33 8/8/34 7/7/35 6/6/36 5/5/37 4/4/38 3/3/39 2/2/40
f 41/61/41 42/62/42 43/63/43 44/64/44 45/65/45 46/66/46 47/67/47 48/68/48
f 18/37/49 17/35/50 9/26/51 16/25/52
f 19/38/53 18/37/54 16/25/55 15/24/56
f 20/39/57 19/38/58 15/24/59 14/23/60
f 21/40/61 20/39/62 14/23/63 13/22/64
f 22/41/65 21/40/66 13/22/67 12/21/68
f 23/42/69 22/41/70 12/21/71 11/20/72
f 24/43/73 23/42/74 11/20/75 10/19/76
f 17/36/77 24/43/78 10/19/79 9/18/80
f 1/9/81 2/10/82 26/46/83 25/45/84
f 2/10/85 3/11/86 27/47/87 26/46/88
f 3/11/89 4/12/90 28/48/91 27/47/92
f 4/12/93 5/13/94 29/49/95 28/48/96
f 5/13/97 6/14/98 30/50/99 29/49/100
f 6/14/101 7/15/102 31/51/103 30/50/104
f 7/15/105 8/16/106 32/52/107 31/51/108
f 8/16/109 1/17/110 25/44/111 32/52/112
f 9/33/113 10/32/114 34/54/115 33/53/116
f 10/32/117 11/31/118 35/55/119 34/54/120
f 11/31/121 12/30/122 36/56/123 35/55/124
f 12/30/125 13/29/126 37/57/127 36/56/128
f 13/29/129 14/28/130 38/58/131 37/57/132
f 14/28/133 15/27/134 39/59/135 38/58/136
f 15/27/137 16/34/138 40/60/139 39/59/140
f 16/34/141 9/33/142 33/53/143 40/60/144
f 33/53/145 34/54/146 42/62/147 41/61/148
f 34/54/149 35/55/150 43/63/151 42/62/152
f 35/55/153 36/56/154 44/64/155 43/63/156
f 36/56/157 37/57/158 45/65/159 44/64/160
f 37/57/161 38/58/162 46/66/163 45/65/164
f 38/58/165 39/59/166 47/67/167 46/66/168
f 39/59/169 40/60/170 48/68/171 47/67/172
f 40/60/173 33/53/174 41/61/175 48/68/176
#42 polygons

